<?xml version="1.0" encoding="UTF-8" standalone="no"?>
<!-- Created with Inkscape (http://www.inkscape.org/) -->
<svg
   xmlns:dc="http://purl.org/dc/elements/1.1/"
   xmlns:cc="http://creativecommons.org/ns#"
   xmlns:rdf="http://www.w3.org/1999/02/22-rdf-syntax-ns#"
   xmlns:svg="http://www.w3.org/2000/svg"
   xmlns="http://www.w3.org/2000/svg"
   xmlns:sodipodi="http://sodipodi.sourceforge.net/DTD/sodipodi-0.dtd"
   xmlns:inkscape="http://www.inkscape.org/namespaces/inkscape"
   width="64px"
   height="64px"
   id="svg2483"
   sodipodi:version="0.32"
   inkscape:version="0.46"
   sodipodi:docname="goal.svg"
   inkscape:output_extension="org.inkscape.output.svg.inkscape"
   inkscape:export-filename="/home/ugo/googlecode/br.puc.molic.diagram/icons/goalclear.png"
   inkscape:export-xdpi="22.5"
   inkscape:export-ydpi="22.5">
  <defs
     id="defs2485">
    <inkscape:perspective
       sodipodi:type="inkscape:persp3d"
       inkscape:vp_x="0 : 32 : 1"
       inkscape:vp_y="0 : 1000 : 0"
       inkscape:vp_z="64 : 32 : 1"
       inkscape:persp3d-origin="32 : 21.333333 : 1"
       id="perspective2491" />
  </defs>
  <sodipodi:namedview
     id="base"
     pagecolor="#ffffff"
     bordercolor="#666666"
     borderopacity="1.0"
     inkscape:pageopacity="0.0"
     inkscape:pageshadow="2"
     inkscape:zoom="0.36"
     inkscape:cx="-19.068823"
     inkscape:cy="32"
     inkscape:current-layer="layer1"
     showgrid="true"
     inkscape:document-units="px"
     inkscape:grid-bbox="true"
     inkscape:window-width="1280"
     inkscape:window-height="752"
     inkscape:window-x="0"
     inkscape:window-y="25" />
  <metadata
     id="metadata2488">
    <rdf:RDF>
      <cc:Work
         rdf:about="">
        <dc:format>image/svg+xml</dc:format>
        <dc:type
           rdf:resource="http://purl.org/dc/dcmitype/StillImage" />
      </cc:Work>
    </rdf:RDF>
  </metadata>
  <g
     id="layer1"
     inkscape:label="Layer 1"
     inkscape:groupmode="layer">
    <path
       style="fill:#000000"
       id="path2452"
       d="M 32.809007,52.281609 C 22.132823,52.281609 13.468714,43.63129 13.468714,32.953307 C 13.468714,22.255995 22.132823,13.611967 32.809007,13.611967 C 43.494482,13.611967 52.147794,22.255995 52.147794,32.953307 C 52.147794,43.63129 43.494482,52.281609 32.809007,52.281609 M 32.809007,3.9547122 C 16.804091,3.9547122 3.8253944,16.936708 3.8253944,32.953307 C 3.8253944,48.957614 16.804091,61.935567 32.809007,61.935567 C 48.820806,61.935567 61.819888,48.957614 61.819888,32.953307 C 61.819888,16.936708 48.820806,3.9547122 32.809007,3.9547122 z" />
    <path
       style="fill:#000000"
       id="path2454"
       d="M 32.809007,23.01625 C 27.322923,23.01625 22.877796,27.450586 22.877796,32.953307 C 22.877796,38.43789 27.322769,42.885418 32.809007,42.885418 C 38.300327,42.885418 42.7552,38.437745 42.7552,32.953307 C 42.7552,27.45074 38.300327,23.01625 32.809007,23.01625" />
    <path
       sodipodi:type="arc"
       id="path2413"
       style="fill:#000000;stroke:none"
       sodipodi:cx="13.492063"
       sodipodi:cy="52.888889"
       sodipodi:rx="1.5"
       sodipodi:ry="1.5"
       d="M 14.992063,52.888889 A 1.5,1.5 0 1 1 11.992063,52.888889 A 1.5,1.5 0 1 1 14.992063,52.888889 z" />
    <path
       style="fill:none;fill-rule:evenodd;stroke:#f80000;stroke-width:14.4;stroke-linecap:butt;stroke-linejoin:miter;stroke-opacity:1;stroke-miterlimit:4;stroke-dasharray:none"
       d="M 13.749299,51.092495 L 51.910617,15.456558 L 51.910617,15.456558"
       id="path3185" />
  </g>
</svg>
